<mxfile host="app.diagrams.net" agent="Mozilla/5.0 (Windows NT 10.0; Win64; x64) AppleWebKit/537.36 (KHTML, like Gecko) Chrome/131.0.0.0 Safari/537.36" version="25.0.1">
  <diagram name="Page-1" id="_AqIk849A-7JuCAGYJIs">
    <mxGraphModel dx="4400" dy="2785" grid="1" gridSize="10" guides="1" tooltips="1" connect="1" arrows="1" fold="1" page="1" pageScale="1" pageWidth="850" pageHeight="1100" math="0" shadow="0">
      <root>
        <mxCell id="0" />
        <mxCell id="1" parent="0" />
        <mxCell id="-TgTT-V-02__XtDvlx8i-7" value="" style="group" vertex="1" connectable="0" parent="1">
          <mxGeometry x="1005" y="76" width="2240" height="1760" as="geometry" />
        </mxCell>
        <mxCell id="FXMqaDl6zVYJmUiDCpna-1" value="W2053187_Session" style="swimlane;fontStyle=0;childLayout=stackLayout;horizontal=1;startSize=30;horizontalStack=0;resizeParent=1;resizeParentMax=0;resizeLast=0;collapsible=1;marginBottom=0;whiteSpace=wrap;html=1;" parent="-TgTT-V-02__XtDvlx8i-7" vertex="1">
          <mxGeometry x="1260" y="534" width="240" height="60" as="geometry" />
        </mxCell>
        <mxCell id="FXMqaDl6zVYJmUiDCpna-2" value="W2053187_Session_ID (PK)" style="text;strokeColor=none;fillColor=none;align=center;verticalAlign=middle;spacingLeft=4;spacingRight=4;overflow=hidden;points=[[0,0.5],[1,0.5]];portConstraint=eastwest;rotatable=0;whiteSpace=wrap;html=1;" parent="FXMqaDl6zVYJmUiDCpna-1" vertex="1">
          <mxGeometry y="30" width="240" height="30" as="geometry" />
        </mxCell>
        <mxCell id="FXMqaDl6zVYJmUiDCpna-3" value="W2053187_Unsupervised_Session" style="swimlane;fontStyle=0;childLayout=stackLayout;horizontal=1;startSize=30;horizontalStack=0;resizeParent=1;resizeParentMax=0;resizeLast=0;collapsible=1;marginBottom=0;whiteSpace=wrap;html=1;" parent="-TgTT-V-02__XtDvlx8i-7" vertex="1">
          <mxGeometry x="1060" y="654" width="240" height="60" as="geometry" />
        </mxCell>
        <mxCell id="FXMqaDl6zVYJmUiDCpna-4" value="&lt;span style=&quot;font-size: 12px; text-wrap-mode: wrap; background-color: rgb(251, 251, 251);&quot;&gt;W2053187_&lt;/span&gt;Follow_up_link" style="text;html=1;align=center;verticalAlign=middle;resizable=0;points=[];autosize=1;strokeColor=none;fillColor=none;fontFamily=Helvetica;fontSize=11;fontColor=default;labelBackgroundColor=default;" parent="FXMqaDl6zVYJmUiDCpna-3" vertex="1">
          <mxGeometry y="30" width="240" height="30" as="geometry" />
        </mxCell>
        <mxCell id="FXMqaDl6zVYJmUiDCpna-5" value="W2053187_Supervised_Session" style="swimlane;fontStyle=0;childLayout=stackLayout;horizontal=1;startSize=30;horizontalStack=0;resizeParent=1;resizeParentMax=0;resizeLast=0;collapsible=1;marginBottom=0;whiteSpace=wrap;html=1;" parent="-TgTT-V-02__XtDvlx8i-7" vertex="1">
          <mxGeometry x="1460" y="654" width="240" height="60" as="geometry" />
        </mxCell>
        <mxCell id="FXMqaDl6zVYJmUiDCpna-6" value="&lt;span style=&quot;text-wrap-mode: wrap;&quot;&gt;W2053187_Session_ID (PK)&lt;/span&gt;" style="text;html=1;align=center;verticalAlign=middle;resizable=0;points=[];autosize=1;strokeColor=none;fillColor=none;" parent="FXMqaDl6zVYJmUiDCpna-5" vertex="1">
          <mxGeometry y="30" width="240" height="30" as="geometry" />
        </mxCell>
        <mxCell id="FXMqaDl6zVYJmUiDCpna-7" value="W2053187_Singles_Session" style="swimlane;fontStyle=0;childLayout=stackLayout;horizontal=1;startSize=30;horizontalStack=0;resizeParent=1;resizeParentMax=0;resizeLast=0;collapsible=1;marginBottom=0;whiteSpace=wrap;html=1;" parent="-TgTT-V-02__XtDvlx8i-7" vertex="1">
          <mxGeometry x="1002" y="778" width="173" height="60" as="geometry" />
        </mxCell>
        <mxCell id="8P291sAO1VQeETlHJY7K-2" value="W2053187_Singles_Session_id" style="text;html=1;align=center;verticalAlign=middle;whiteSpace=wrap;rounded=0;" parent="FXMqaDl6zVYJmUiDCpna-7" vertex="1">
          <mxGeometry y="30" width="173" height="30" as="geometry" />
        </mxCell>
        <mxCell id="FXMqaDl6zVYJmUiDCpna-8" value="W2053187_Personal_Category" style="swimlane;fontStyle=0;childLayout=stackLayout;horizontal=1;startSize=30;horizontalStack=0;resizeParent=1;resizeParentMax=0;resizeLast=0;collapsible=1;marginBottom=0;whiteSpace=wrap;html=1;" parent="-TgTT-V-02__XtDvlx8i-7" vertex="1">
          <mxGeometry x="1385" y="775" width="195" height="60" as="geometry" />
        </mxCell>
        <mxCell id="8P291sAO1VQeETlHJY7K-4" value="W2053187_Personal_Category_id" style="text;html=1;align=center;verticalAlign=middle;whiteSpace=wrap;rounded=0;" parent="FXMqaDl6zVYJmUiDCpna-8" vertex="1">
          <mxGeometry y="30" width="195" height="30" as="geometry" />
        </mxCell>
        <mxCell id="FXMqaDl6zVYJmUiDCpna-9" value="W2053187_Group_Category" style="swimlane;fontStyle=0;childLayout=stackLayout;horizontal=1;startSize=30;horizontalStack=0;resizeParent=1;resizeParentMax=0;resizeLast=0;collapsible=1;marginBottom=0;whiteSpace=wrap;html=1;" parent="-TgTT-V-02__XtDvlx8i-7" vertex="1">
          <mxGeometry x="1710" y="784" width="185" height="60" as="geometry" />
        </mxCell>
        <mxCell id="FXMqaDl6zVYJmUiDCpna-13" value="" style="endArrow=classic;html=1;rounded=0;entryX=0.512;entryY=0.997;entryDx=0;entryDy=0;entryPerimeter=0;" parent="FXMqaDl6zVYJmUiDCpna-9" edge="1">
          <mxGeometry width="50" height="50" relative="1" as="geometry">
            <mxPoint x="93" y="91" as="sourcePoint" />
            <mxPoint x="93.11199999999963" y="60.91000000000008" as="targetPoint" />
          </mxGeometry>
        </mxCell>
        <mxCell id="ftEtEHd6b6UoMxQYzBpm-1" value="W2053187_Group_Category_id" style="text;html=1;align=center;verticalAlign=middle;whiteSpace=wrap;rounded=0;" parent="FXMqaDl6zVYJmUiDCpna-9" vertex="1">
          <mxGeometry y="30" width="185" height="30" as="geometry" />
        </mxCell>
        <mxCell id="FXMqaDl6zVYJmUiDCpna-14" value="" style="endArrow=classic;html=1;rounded=0;strokeColor=default;align=center;verticalAlign=middle;fontFamily=Helvetica;fontSize=11;fontColor=default;labelBackgroundColor=default;curved=1;entryX=0.503;entryY=1.025;entryDx=0;entryDy=0;entryPerimeter=0;" parent="-TgTT-V-02__XtDvlx8i-7" edge="1">
          <mxGeometry width="50" height="50" relative="1" as="geometry">
            <mxPoint x="1379" y="635" as="sourcePoint" />
            <mxPoint x="1378.7199999999998" y="594.75" as="targetPoint" />
          </mxGeometry>
        </mxCell>
        <mxCell id="FXMqaDl6zVYJmUiDCpna-15" value="" style="endArrow=none;html=1;rounded=0;strokeColor=default;align=center;verticalAlign=middle;fontFamily=Helvetica;fontSize=11;fontColor=default;labelBackgroundColor=default;curved=1;" parent="-TgTT-V-02__XtDvlx8i-7" edge="1">
          <mxGeometry width="50" height="50" relative="1" as="geometry">
            <mxPoint x="1580" y="635" as="sourcePoint" />
            <mxPoint x="1180" y="635" as="targetPoint" />
          </mxGeometry>
        </mxCell>
        <mxCell id="FXMqaDl6zVYJmUiDCpna-16" value="" style="endArrow=none;html=1;rounded=0;strokeColor=default;align=center;verticalAlign=middle;fontFamily=Helvetica;fontSize=11;fontColor=default;labelBackgroundColor=default;curved=1;exitX=0.5;exitY=0;exitDx=0;exitDy=0;" parent="-TgTT-V-02__XtDvlx8i-7" source="FXMqaDl6zVYJmUiDCpna-3" edge="1">
          <mxGeometry width="50" height="50" relative="1" as="geometry">
            <mxPoint x="1170" y="635" as="sourcePoint" />
            <mxPoint x="1180" y="635" as="targetPoint" />
          </mxGeometry>
        </mxCell>
        <mxCell id="FXMqaDl6zVYJmUiDCpna-17" value="" style="endArrow=none;html=1;rounded=0;strokeColor=default;align=center;verticalAlign=middle;fontFamily=Helvetica;fontSize=11;fontColor=default;labelBackgroundColor=default;curved=1;exitX=0.5;exitY=0;exitDx=0;exitDy=0;" parent="-TgTT-V-02__XtDvlx8i-7" edge="1">
          <mxGeometry width="50" height="50" relative="1" as="geometry">
            <mxPoint x="1580" y="654" as="sourcePoint" />
            <mxPoint x="1580" y="635" as="targetPoint" />
          </mxGeometry>
        </mxCell>
        <mxCell id="FXMqaDl6zVYJmUiDCpna-18" value="" style="endArrow=none;html=1;rounded=0;strokeColor=default;align=center;verticalAlign=middle;fontFamily=Helvetica;fontSize=11;fontColor=default;labelBackgroundColor=default;curved=0;entryX=0.51;entryY=-0.001;entryDx=0;entryDy=0;entryPerimeter=0;exitX=0.462;exitY=0.002;exitDx=0;exitDy=0;exitPerimeter=0;" parent="-TgTT-V-02__XtDvlx8i-7" source="FXMqaDl6zVYJmUiDCpna-108" target="FXMqaDl6zVYJmUiDCpna-7" edge="1">
          <mxGeometry width="50" height="50" relative="1" as="geometry">
            <mxPoint x="1270" y="755" as="sourcePoint" />
            <mxPoint x="1090" y="774" as="targetPoint" />
            <Array as="points">
              <mxPoint x="1270" y="754" />
              <mxPoint x="1090" y="754" />
            </Array>
          </mxGeometry>
        </mxCell>
        <mxCell id="FXMqaDl6zVYJmUiDCpna-19" value="" style="endArrow=none;html=1;rounded=0;strokeColor=default;align=center;verticalAlign=middle;fontFamily=Helvetica;fontSize=11;fontColor=default;labelBackgroundColor=default;curved=0;exitX=0.514;exitY=0;exitDx=0;exitDy=0;exitPerimeter=0;" parent="-TgTT-V-02__XtDvlx8i-7" source="FXMqaDl6zVYJmUiDCpna-9" edge="1">
          <mxGeometry width="50" height="50" relative="1" as="geometry">
            <mxPoint x="1825" y="755" as="sourcePoint" />
            <mxPoint x="1680" y="755" as="targetPoint" />
            <Array as="points">
              <mxPoint x="1805" y="754" />
            </Array>
          </mxGeometry>
        </mxCell>
        <mxCell id="FXMqaDl6zVYJmUiDCpna-20" value="" style="endArrow=none;html=1;rounded=0;strokeColor=default;align=center;verticalAlign=middle;fontFamily=Helvetica;fontSize=11;fontColor=default;labelBackgroundColor=default;curved=0;entryX=0.488;entryY=0.002;entryDx=0;entryDy=0;entryPerimeter=0;" parent="-TgTT-V-02__XtDvlx8i-7" target="FXMqaDl6zVYJmUiDCpna-8" edge="1">
          <mxGeometry width="50" height="50" relative="1" as="geometry">
            <mxPoint x="1680" y="755" as="sourcePoint" />
            <mxPoint x="1480" y="774" as="targetPoint" />
            <Array as="points">
              <mxPoint x="1480" y="754" />
            </Array>
          </mxGeometry>
        </mxCell>
        <mxCell id="FXMqaDl6zVYJmUiDCpna-21" value="W2053187_Instructor" style="swimlane;fontStyle=0;childLayout=stackLayout;horizontal=1;startSize=30;horizontalStack=0;resizeParent=1;resizeParentMax=0;resizeLast=0;collapsible=1;marginBottom=0;whiteSpace=wrap;html=1;" parent="-TgTT-V-02__XtDvlx8i-7" vertex="1">
          <mxGeometry x="1112" y="964" width="240" height="120" as="geometry" />
        </mxCell>
        <mxCell id="FXMqaDl6zVYJmUiDCpna-22" value="W2053187_Instructor_ID (PK)" style="text;strokeColor=none;fillColor=none;align=left;verticalAlign=middle;spacingLeft=4;spacingRight=4;overflow=hidden;points=[[0,0.5],[1,0.5]];portConstraint=eastwest;rotatable=0;whiteSpace=wrap;html=1;" parent="FXMqaDl6zVYJmUiDCpna-21" vertex="1">
          <mxGeometry y="30" width="240" height="30" as="geometry" />
        </mxCell>
        <mxCell id="FXMqaDl6zVYJmUiDCpna-23" value="W2053187_Name" style="text;strokeColor=none;fillColor=none;align=left;verticalAlign=middle;spacingLeft=4;spacingRight=4;overflow=hidden;points=[[0,0.5],[1,0.5]];portConstraint=eastwest;rotatable=0;whiteSpace=wrap;html=1;" parent="FXMqaDl6zVYJmUiDCpna-21" vertex="1">
          <mxGeometry y="60" width="240" height="30" as="geometry" />
        </mxCell>
        <mxCell id="FXMqaDl6zVYJmUiDCpna-24" value="W2053187_Specialty" style="text;strokeColor=none;fillColor=none;align=left;verticalAlign=middle;spacingLeft=4;spacingRight=4;overflow=hidden;points=[[0,0.5],[1,0.5]];portConstraint=eastwest;rotatable=0;whiteSpace=wrap;html=1;" parent="FXMqaDl6zVYJmUiDCpna-21" vertex="1">
          <mxGeometry y="90" width="240" height="30" as="geometry" />
        </mxCell>
        <mxCell id="FXMqaDl6zVYJmUiDCpna-25" value="W2053187_Maintenance_Log" style="swimlane;fontStyle=0;childLayout=stackLayout;horizontal=1;startSize=30;horizontalStack=0;resizeParent=1;resizeParentMax=0;resizeLast=0;collapsible=1;marginBottom=0;whiteSpace=wrap;html=1;" parent="-TgTT-V-02__XtDvlx8i-7" vertex="1">
          <mxGeometry x="914" y="44" width="230" height="180" as="geometry" />
        </mxCell>
        <mxCell id="FXMqaDl6zVYJmUiDCpna-26" value="W2053187_&lt;span style=&quot;text-align: center;&quot;&gt;Maintenance&lt;/span&gt;_ID (PK)" style="text;strokeColor=none;fillColor=none;align=left;verticalAlign=middle;spacingLeft=4;spacingRight=4;overflow=hidden;points=[[0,0.5],[1,0.5]];portConstraint=eastwest;rotatable=0;whiteSpace=wrap;html=1;" parent="FXMqaDl6zVYJmUiDCpna-25" vertex="1">
          <mxGeometry y="30" width="230" height="30" as="geometry" />
        </mxCell>
        <mxCell id="FXMqaDl6zVYJmUiDCpna-27" value="W2053187_Data" style="text;strokeColor=none;fillColor=none;align=left;verticalAlign=middle;spacingLeft=4;spacingRight=4;overflow=hidden;points=[[0,0.5],[1,0.5]];portConstraint=eastwest;rotatable=0;whiteSpace=wrap;html=1;" parent="FXMqaDl6zVYJmUiDCpna-25" vertex="1">
          <mxGeometry y="60" width="230" height="30" as="geometry" />
        </mxCell>
        <mxCell id="FXMqaDl6zVYJmUiDCpna-28" value="W2053187_Time" style="text;strokeColor=none;fillColor=none;align=left;verticalAlign=middle;spacingLeft=4;spacingRight=4;overflow=hidden;points=[[0,0.5],[1,0.5]];portConstraint=eastwest;rotatable=0;whiteSpace=wrap;html=1;" parent="FXMqaDl6zVYJmUiDCpna-25" vertex="1">
          <mxGeometry y="90" width="230" height="30" as="geometry" />
        </mxCell>
        <mxCell id="FXMqaDl6zVYJmUiDCpna-29" value="W2053187_Status" style="text;strokeColor=none;fillColor=none;align=left;verticalAlign=middle;spacingLeft=4;spacingRight=4;overflow=hidden;points=[[0,0.5],[1,0.5]];portConstraint=eastwest;rotatable=0;whiteSpace=wrap;html=1;" parent="FXMqaDl6zVYJmUiDCpna-25" vertex="1">
          <mxGeometry y="120" width="230" height="30" as="geometry" />
        </mxCell>
        <mxCell id="FXMqaDl6zVYJmUiDCpna-30" value="W2053187_Log_Description" style="text;strokeColor=none;fillColor=none;align=left;verticalAlign=middle;spacingLeft=4;spacingRight=4;overflow=hidden;points=[[0,0.5],[1,0.5]];portConstraint=eastwest;rotatable=0;whiteSpace=wrap;html=1;" parent="FXMqaDl6zVYJmUiDCpna-25" vertex="1">
          <mxGeometry y="150" width="230" height="30" as="geometry" />
        </mxCell>
        <mxCell id="FXMqaDl6zVYJmUiDCpna-31" value="W2053187_Court" style="swimlane;fontStyle=0;childLayout=stackLayout;horizontal=1;startSize=30;horizontalStack=0;resizeParent=1;resizeParentMax=0;resizeLast=0;collapsible=1;marginBottom=0;whiteSpace=wrap;html=1;" parent="-TgTT-V-02__XtDvlx8i-7" vertex="1">
          <mxGeometry x="555" y="474" width="230" height="120" as="geometry" />
        </mxCell>
        <mxCell id="FXMqaDl6zVYJmUiDCpna-32" value="W2053187_Court_ID (PK)" style="text;strokeColor=none;fillColor=none;align=left;verticalAlign=middle;spacingLeft=4;spacingRight=4;overflow=hidden;points=[[0,0.5],[1,0.5]];portConstraint=eastwest;rotatable=0;whiteSpace=wrap;html=1;" parent="FXMqaDl6zVYJmUiDCpna-31" vertex="1">
          <mxGeometry y="30" width="230" height="30" as="geometry" />
        </mxCell>
        <mxCell id="FXMqaDl6zVYJmUiDCpna-33" value="W2053187_Location" style="text;strokeColor=none;fillColor=none;align=left;verticalAlign=middle;spacingLeft=4;spacingRight=4;overflow=hidden;points=[[0,0.5],[1,0.5]];portConstraint=eastwest;rotatable=0;whiteSpace=wrap;html=1;" parent="FXMqaDl6zVYJmUiDCpna-31" vertex="1">
          <mxGeometry y="60" width="230" height="30" as="geometry" />
        </mxCell>
        <mxCell id="FXMqaDl6zVYJmUiDCpna-34" value="W2053187_Status" style="text;strokeColor=none;fillColor=none;align=left;verticalAlign=middle;spacingLeft=4;spacingRight=4;overflow=hidden;points=[[0,0.5],[1,0.5]];portConstraint=eastwest;rotatable=0;whiteSpace=wrap;html=1;" parent="FXMqaDl6zVYJmUiDCpna-31" vertex="1">
          <mxGeometry y="90" width="230" height="30" as="geometry" />
        </mxCell>
        <mxCell id="FXMqaDl6zVYJmUiDCpna-35" value="W2053187_Player" style="swimlane;fontStyle=0;childLayout=stackLayout;horizontal=1;startSize=30;horizontalStack=0;resizeParent=1;resizeParentMax=0;resizeLast=0;collapsible=1;marginBottom=0;whiteSpace=wrap;html=1;" parent="-TgTT-V-02__XtDvlx8i-7" vertex="1">
          <mxGeometry x="915" y="324" width="230" height="120" as="geometry" />
        </mxCell>
        <mxCell id="FXMqaDl6zVYJmUiDCpna-36" value="&lt;div style=&quot;text-align: center;&quot;&gt;&lt;span style=&quot;background-color: initial;&quot;&gt;W2053187_Player&lt;/span&gt;&lt;span style=&quot;background-color: initial;&quot;&gt;_ID (PK)&lt;/span&gt;&lt;/div&gt;" style="text;strokeColor=none;fillColor=none;align=left;verticalAlign=middle;spacingLeft=4;spacingRight=4;overflow=hidden;points=[[0,0.5],[1,0.5]];portConstraint=eastwest;rotatable=0;whiteSpace=wrap;html=1;" parent="FXMqaDl6zVYJmUiDCpna-35" vertex="1">
          <mxGeometry y="30" width="230" height="30" as="geometry" />
        </mxCell>
        <mxCell id="FXMqaDl6zVYJmUiDCpna-37" value="W2053187_Name" style="text;strokeColor=none;fillColor=none;align=left;verticalAlign=middle;spacingLeft=4;spacingRight=4;overflow=hidden;points=[[0,0.5],[1,0.5]];portConstraint=eastwest;rotatable=0;whiteSpace=wrap;html=1;" parent="FXMqaDl6zVYJmUiDCpna-35" vertex="1">
          <mxGeometry y="60" width="230" height="30" as="geometry" />
        </mxCell>
        <mxCell id="FXMqaDl6zVYJmUiDCpna-38" value="W2053187_Contact_Details" style="text;strokeColor=none;fillColor=none;align=left;verticalAlign=middle;spacingLeft=4;spacingRight=4;overflow=hidden;points=[[0,0.5],[1,0.5]];portConstraint=eastwest;rotatable=0;whiteSpace=wrap;html=1;" parent="FXMqaDl6zVYJmUiDCpna-35" vertex="1">
          <mxGeometry y="90" width="230" height="30" as="geometry" />
        </mxCell>
        <mxCell id="FXMqaDl6zVYJmUiDCpna-39" value="W2053187_Park" style="swimlane;fontStyle=0;childLayout=stackLayout;horizontal=1;startSize=30;horizontalStack=0;resizeParent=1;resizeParentMax=0;resizeLast=0;collapsible=1;marginBottom=0;whiteSpace=wrap;html=1;fillColor=none;" parent="-TgTT-V-02__XtDvlx8i-7" vertex="1">
          <mxGeometry x="100" y="264" width="230" height="120" as="geometry" />
        </mxCell>
        <mxCell id="FXMqaDl6zVYJmUiDCpna-40" value="&lt;div style=&quot;text-align: center;&quot;&gt;&lt;span style=&quot;background-color: initial;&quot;&gt;W2053187_Park&lt;/span&gt;&lt;span style=&quot;background-color: initial;&quot;&gt;_ID (PK)&lt;/span&gt;&lt;/div&gt;" style="text;strokeColor=none;fillColor=none;align=left;verticalAlign=middle;spacingLeft=4;spacingRight=4;overflow=hidden;points=[[0,0.5],[1,0.5]];portConstraint=eastwest;rotatable=0;whiteSpace=wrap;html=1;" parent="FXMqaDl6zVYJmUiDCpna-39" vertex="1">
          <mxGeometry y="30" width="230" height="30" as="geometry" />
        </mxCell>
        <mxCell id="FXMqaDl6zVYJmUiDCpna-124" value="" style="endArrow=none;html=1;rounded=0;entryX=0.174;entryY=0;entryDx=0;entryDy=0;entryPerimeter=0;" parent="FXMqaDl6zVYJmUiDCpna-39" target="FXMqaDl6zVYJmUiDCpna-31" edge="1">
          <mxGeometry width="50" height="50" relative="1" as="geometry">
            <mxPoint x="135" y="120" as="sourcePoint" />
            <mxPoint x="185" y="70" as="targetPoint" />
            <Array as="points">
              <mxPoint x="135" y="150" />
              <mxPoint x="495" y="150" />
            </Array>
          </mxGeometry>
        </mxCell>
        <mxCell id="FXMqaDl6zVYJmUiDCpna-41" value="W2053187_Name" style="text;strokeColor=none;fillColor=none;align=left;verticalAlign=middle;spacingLeft=4;spacingRight=4;overflow=hidden;points=[[0,0.5],[1,0.5]];portConstraint=eastwest;rotatable=0;whiteSpace=wrap;html=1;" parent="FXMqaDl6zVYJmUiDCpna-39" vertex="1">
          <mxGeometry y="60" width="230" height="30" as="geometry" />
        </mxCell>
        <mxCell id="FXMqaDl6zVYJmUiDCpna-42" value="W2053187_Location" style="text;strokeColor=none;fillColor=none;align=left;verticalAlign=middle;spacingLeft=4;spacingRight=4;overflow=hidden;points=[[0,0.5],[1,0.5]];portConstraint=eastwest;rotatable=0;whiteSpace=wrap;html=1;" parent="FXMqaDl6zVYJmUiDCpna-39" vertex="1">
          <mxGeometry y="90" width="230" height="30" as="geometry" />
        </mxCell>
        <mxCell id="FXMqaDl6zVYJmUiDCpna-43" value="W2053187_Caretaker" style="swimlane;fontStyle=0;childLayout=stackLayout;horizontal=1;startSize=30;horizontalStack=0;resizeParent=1;resizeParentMax=0;resizeLast=0;collapsible=1;marginBottom=0;whiteSpace=wrap;html=1;" parent="-TgTT-V-02__XtDvlx8i-7" vertex="1">
          <mxGeometry x="552" y="264" width="230" height="120" as="geometry" />
        </mxCell>
        <mxCell id="FXMqaDl6zVYJmUiDCpna-44" value="&lt;div style=&quot;text-align: center;&quot;&gt;&lt;span style=&quot;background-color: initial;&quot;&gt;W2053187_Caretaker&lt;/span&gt;&lt;span style=&quot;background-color: initial;&quot;&gt;_ID (PK)&lt;/span&gt;&lt;/div&gt;" style="text;strokeColor=none;fillColor=none;align=left;verticalAlign=middle;spacingLeft=4;spacingRight=4;overflow=hidden;points=[[0,0.5],[1,0.5]];portConstraint=eastwest;rotatable=0;whiteSpace=wrap;html=1;" parent="FXMqaDl6zVYJmUiDCpna-43" vertex="1">
          <mxGeometry y="30" width="230" height="30" as="geometry" />
        </mxCell>
        <mxCell id="FXMqaDl6zVYJmUiDCpna-45" value="W2053187_Name" style="text;strokeColor=none;fillColor=none;align=left;verticalAlign=middle;spacingLeft=4;spacingRight=4;overflow=hidden;points=[[0,0.5],[1,0.5]];portConstraint=eastwest;rotatable=0;whiteSpace=wrap;html=1;" parent="FXMqaDl6zVYJmUiDCpna-43" vertex="1">
          <mxGeometry y="60" width="230" height="30" as="geometry" />
        </mxCell>
        <mxCell id="FXMqaDl6zVYJmUiDCpna-46" value="W2053187_Assigned_Area" style="text;strokeColor=none;fillColor=none;align=left;verticalAlign=middle;spacingLeft=4;spacingRight=4;overflow=hidden;points=[[0,0.5],[1,0.5]];portConstraint=eastwest;rotatable=0;whiteSpace=wrap;html=1;" parent="FXMqaDl6zVYJmUiDCpna-43" vertex="1">
          <mxGeometry y="90" width="230" height="30" as="geometry" />
        </mxCell>
        <mxCell id="FXMqaDl6zVYJmUiDCpna-47" value="W2053187_Tennis_Court" style="swimlane;fontStyle=0;childLayout=stackLayout;horizontal=1;startSize=30;horizontalStack=0;resizeParent=1;resizeParentMax=0;resizeLast=0;collapsible=1;marginBottom=0;whiteSpace=wrap;html=1;" parent="-TgTT-V-02__XtDvlx8i-7" vertex="1">
          <mxGeometry x="430" y="676" width="230" height="60" as="geometry" />
        </mxCell>
        <mxCell id="FXMqaDl6zVYJmUiDCpna-119" value="&lt;span style=&quot;text-align: left; text-wrap-mode: wrap;&quot;&gt;W2053187_Court_ID_Tennis (PK)&lt;/span&gt;" style="text;html=1;align=center;verticalAlign=middle;resizable=0;points=[];autosize=1;strokeColor=none;fillColor=none;" parent="FXMqaDl6zVYJmUiDCpna-47" vertex="1">
          <mxGeometry y="30" width="230" height="30" as="geometry" />
        </mxCell>
        <mxCell id="FXMqaDl6zVYJmUiDCpna-48" value="W2053187_Pickleball_Court" style="swimlane;fontStyle=0;childLayout=stackLayout;horizontal=1;startSize=30;horizontalStack=0;resizeParent=1;resizeParentMax=0;resizeLast=0;collapsible=1;marginBottom=0;whiteSpace=wrap;html=1;" parent="-TgTT-V-02__XtDvlx8i-7" vertex="1">
          <mxGeometry x="685" y="675" width="230" height="60" as="geometry" />
        </mxCell>
        <mxCell id="FXMqaDl6zVYJmUiDCpna-121" value="&lt;span style=&quot;text-align: left;&quot;&gt;W2053187_Court_ID_&lt;/span&gt;Pickleball&lt;span style=&quot;text-align: left;&quot;&gt;&amp;nbsp;(PK)&lt;/span&gt;" style="text;html=1;align=center;verticalAlign=middle;whiteSpace=wrap;rounded=0;" parent="FXMqaDl6zVYJmUiDCpna-48" vertex="1">
          <mxGeometry y="30" width="230" height="30" as="geometry" />
        </mxCell>
        <mxCell id="FXMqaDl6zVYJmUiDCpna-49" value="" style="endArrow=classic;html=1;rounded=0;strokeColor=default;align=center;verticalAlign=middle;fontFamily=Helvetica;fontSize=11;fontColor=default;labelBackgroundColor=default;curved=1;entryX=0.503;entryY=1.025;entryDx=0;entryDy=0;entryPerimeter=0;" parent="-TgTT-V-02__XtDvlx8i-7" edge="1">
          <mxGeometry width="50" height="50" relative="1" as="geometry">
            <mxPoint x="670.2799999999997" y="635.25" as="sourcePoint" />
            <mxPoint x="670" y="595" as="targetPoint" />
          </mxGeometry>
        </mxCell>
        <mxCell id="FXMqaDl6zVYJmUiDCpna-50" value="" style="endArrow=none;html=1;rounded=0;strokeColor=default;align=center;verticalAlign=middle;fontFamily=Helvetica;fontSize=11;fontColor=default;labelBackgroundColor=default;curved=1;entryX=0.5;entryY=1;entryDx=0;entryDy=0;" parent="-TgTT-V-02__XtDvlx8i-7" edge="1">
          <mxGeometry width="50" height="50" relative="1" as="geometry">
            <mxPoint x="545" y="675.5" as="sourcePoint" />
            <mxPoint x="545" y="634.5" as="targetPoint" />
          </mxGeometry>
        </mxCell>
        <mxCell id="FXMqaDl6zVYJmUiDCpna-51" value="" style="endArrow=none;html=1;rounded=0;strokeColor=default;align=center;verticalAlign=middle;fontFamily=Helvetica;fontSize=11;fontColor=default;labelBackgroundColor=default;curved=1;" parent="-TgTT-V-02__XtDvlx8i-7" edge="1">
          <mxGeometry width="50" height="50" relative="1" as="geometry">
            <mxPoint x="795" y="675" as="sourcePoint" />
            <mxPoint x="795" y="635" as="targetPoint" />
          </mxGeometry>
        </mxCell>
        <mxCell id="FXMqaDl6zVYJmUiDCpna-52" value="" style="endArrow=none;html=1;rounded=0;strokeColor=default;align=center;verticalAlign=middle;fontFamily=Helvetica;fontSize=11;fontColor=default;labelBackgroundColor=default;curved=1;" parent="-TgTT-V-02__XtDvlx8i-7" edge="1">
          <mxGeometry width="50" height="50" relative="1" as="geometry">
            <mxPoint x="795" y="635" as="sourcePoint" />
            <mxPoint x="545" y="635" as="targetPoint" />
          </mxGeometry>
        </mxCell>
        <mxCell id="FXMqaDl6zVYJmUiDCpna-53" value="" style="endArrow=none;html=1;rounded=0;" parent="-TgTT-V-02__XtDvlx8i-7" edge="1">
          <mxGeometry width="50" height="50" relative="1" as="geometry">
            <mxPoint x="330" y="334" as="sourcePoint" />
            <mxPoint x="552" y="334" as="targetPoint" />
            <Array as="points">
              <mxPoint x="370" y="334" />
            </Array>
          </mxGeometry>
        </mxCell>
        <mxCell id="FXMqaDl6zVYJmUiDCpna-54" value="" style="endArrow=none;html=1;rounded=0;entryX=0.513;entryY=1.007;entryDx=0;entryDy=0;exitX=0.5;exitY=0;exitDx=0;exitDy=0;entryPerimeter=0;" parent="-TgTT-V-02__XtDvlx8i-7" source="FXMqaDl6zVYJmUiDCpna-31" target="FXMqaDl6zVYJmUiDCpna-46" edge="1">
          <mxGeometry width="50" height="50" relative="1" as="geometry">
            <mxPoint x="380" y="484" as="sourcePoint" />
            <mxPoint x="562" y="349" as="targetPoint" />
          </mxGeometry>
        </mxCell>
        <mxCell id="FXMqaDl6zVYJmUiDCpna-55" value="" style="endArrow=none;html=1;rounded=0;exitX=1;exitY=0.5;exitDx=0;exitDy=0;entryX=0.75;entryY=0;entryDx=0;entryDy=0;" parent="-TgTT-V-02__XtDvlx8i-7" target="FXMqaDl6zVYJmUiDCpna-5" edge="1">
          <mxGeometry width="50" height="50" relative="1" as="geometry">
            <mxPoint x="785" y="584" as="sourcePoint" />
            <mxPoint x="1390" y="494" as="targetPoint" />
            <Array as="points">
              <mxPoint x="1210" y="584" />
              <mxPoint x="1210" y="494" />
              <mxPoint x="1640" y="494" />
            </Array>
          </mxGeometry>
        </mxCell>
        <mxCell id="FXMqaDl6zVYJmUiDCpna-56" value="" style="endArrow=none;html=1;rounded=0;" parent="-TgTT-V-02__XtDvlx8i-7" edge="1">
          <mxGeometry width="50" height="50" relative="1" as="geometry">
            <mxPoint x="1030" y="584" as="sourcePoint" />
            <mxPoint x="1030" y="444" as="targetPoint" />
          </mxGeometry>
        </mxCell>
        <mxCell id="FXMqaDl6zVYJmUiDCpna-57" value="" style="endArrow=none;html=1;rounded=0;entryX=0;entryY=0.5;entryDx=0;entryDy=0;exitX=1;exitY=0.5;exitDx=0;exitDy=0;" parent="-TgTT-V-02__XtDvlx8i-7" source="FXMqaDl6zVYJmUiDCpna-32" target="FXMqaDl6zVYJmUiDCpna-29" edge="1">
          <mxGeometry width="50" height="50" relative="1" as="geometry">
            <mxPoint x="862" y="503" as="sourcePoint" />
            <mxPoint x="862" y="184" as="targetPoint" />
            <Array as="points">
              <mxPoint x="862" y="519" />
              <mxPoint x="862" y="179" />
            </Array>
          </mxGeometry>
        </mxCell>
        <mxCell id="FXMqaDl6zVYJmUiDCpna-58" value="" style="endArrow=none;html=1;rounded=0;exitX=1.003;exitY=0.162;exitDx=0;exitDy=0;exitPerimeter=0;" parent="-TgTT-V-02__XtDvlx8i-7" source="FXMqaDl6zVYJmUiDCpna-43" target="FXMqaDl6zVYJmUiDCpna-65" edge="1">
          <mxGeometry width="50" height="50" relative="1" as="geometry">
            <mxPoint x="782.6199999999999" y="332.52" as="sourcePoint" />
            <mxPoint x="854" y="374" as="targetPoint" />
          </mxGeometry>
        </mxCell>
        <mxCell id="FXMqaDl6zVYJmUiDCpna-59" value="" style="endArrow=none;html=1;rounded=0;entryX=0.5;entryY=1;entryDx=0;entryDy=0;" parent="-TgTT-V-02__XtDvlx8i-7" edge="1">
          <mxGeometry width="50" height="50" relative="1" as="geometry">
            <mxPoint x="1352" y="1024" as="sourcePoint" />
            <mxPoint x="1482.5" y="835" as="targetPoint" />
            <Array as="points">
              <mxPoint x="1483" y="1024" />
            </Array>
          </mxGeometry>
        </mxCell>
        <mxCell id="FXMqaDl6zVYJmUiDCpna-60" value="" style="endArrow=none;html=1;rounded=0;entryX=1;entryY=0.5;entryDx=0;entryDy=0;" parent="-TgTT-V-02__XtDvlx8i-7" target="FXMqaDl6zVYJmUiDCpna-9" edge="1">
          <mxGeometry width="50" height="50" relative="1" as="geometry">
            <mxPoint x="1352" y="1063" as="sourcePoint" />
            <mxPoint x="1980" y="804" as="targetPoint" />
            <Array as="points">
              <mxPoint x="1677" y="1063" />
              <mxPoint x="2140" y="1064" />
              <mxPoint x="2140" y="814" />
            </Array>
          </mxGeometry>
        </mxCell>
        <mxCell id="FXMqaDl6zVYJmUiDCpna-61" value="" style="endArrow=none;html=1;rounded=0;" parent="-TgTT-V-02__XtDvlx8i-7" edge="1">
          <mxGeometry width="50" height="50" relative="1" as="geometry">
            <mxPoint x="1112" y="564" as="sourcePoint" />
            <mxPoint x="1112" y="444" as="targetPoint" />
          </mxGeometry>
        </mxCell>
        <mxCell id="FXMqaDl6zVYJmUiDCpna-62" value="" style="endArrow=none;html=1;rounded=1;curved=0;" parent="-TgTT-V-02__XtDvlx8i-7" edge="1">
          <mxGeometry width="50" height="50" relative="1" as="geometry">
            <mxPoint x="1112" y="604" as="sourcePoint" />
            <mxPoint x="1112" y="564" as="targetPoint" />
            <Array as="points">
              <mxPoint x="1092" y="584" />
            </Array>
          </mxGeometry>
        </mxCell>
        <mxCell id="FXMqaDl6zVYJmUiDCpna-63" value="" style="endArrow=none;html=1;rounded=0;" parent="-TgTT-V-02__XtDvlx8i-7" edge="1">
          <mxGeometry width="50" height="50" relative="1" as="geometry">
            <mxPoint x="1112" y="654" as="sourcePoint" />
            <mxPoint x="1112" y="604" as="targetPoint" />
          </mxGeometry>
        </mxCell>
        <mxCell id="FXMqaDl6zVYJmUiDCpna-64" value="" style="endArrow=none;html=1;rounded=0;entryX=1;entryY=0.905;entryDx=0;entryDy=0;entryPerimeter=0;" parent="-TgTT-V-02__XtDvlx8i-7" target="FXMqaDl6zVYJmUiDCpna-36" edge="1">
          <mxGeometry width="50" height="50" relative="1" as="geometry">
            <mxPoint x="1042" y="324" as="sourcePoint" />
            <mxPoint x="1212" y="364" as="targetPoint" />
            <Array as="points">
              <mxPoint x="1042" y="264" />
              <mxPoint x="1242" y="264" />
              <mxPoint x="1242" y="381" />
            </Array>
          </mxGeometry>
        </mxCell>
        <mxCell id="FXMqaDl6zVYJmUiDCpna-65" value="Recordes" style="rhombus;whiteSpace=wrap;html=1;" parent="-TgTT-V-02__XtDvlx8i-7" vertex="1">
          <mxGeometry x="822" y="244" width="80" height="80" as="geometry" />
        </mxCell>
        <mxCell id="FXMqaDl6zVYJmUiDCpna-66" value="Books" style="rhombus;whiteSpace=wrap;html=1;" parent="-TgTT-V-02__XtDvlx8i-7" vertex="1">
          <mxGeometry x="990" y="544" width="80" height="80" as="geometry" />
        </mxCell>
        <mxCell id="FXMqaDl6zVYJmUiDCpna-67" value="look&amp;nbsp; after" style="text;html=1;align=center;verticalAlign=middle;whiteSpace=wrap;rounded=0;" parent="-TgTT-V-02__XtDvlx8i-7" vertex="1">
          <mxGeometry x="410" y="334" width="70" height="30" as="geometry" />
        </mxCell>
        <mxCell id="FXMqaDl6zVYJmUiDCpna-68" value="look&amp;nbsp; after" style="text;html=1;align=center;verticalAlign=middle;whiteSpace=wrap;rounded=0;" parent="-TgTT-V-02__XtDvlx8i-7" vertex="1">
          <mxGeometry x="670" y="404" width="70" height="30" as="geometry" />
        </mxCell>
        <mxCell id="FXMqaDl6zVYJmUiDCpna-69" value="Recommends" style="text;strokeColor=none;fillColor=none;align=left;verticalAlign=middle;spacingLeft=4;spacingRight=4;overflow=hidden;points=[[0,0.5],[1,0.5]];portConstraint=eastwest;rotatable=0;whiteSpace=wrap;html=1;" parent="-TgTT-V-02__XtDvlx8i-7" vertex="1">
          <mxGeometry x="1100" y="265" width="84" height="30" as="geometry" />
        </mxCell>
        <mxCell id="FXMqaDl6zVYJmUiDCpna-70" value="Blockbooks" style="text;html=1;align=center;verticalAlign=middle;whiteSpace=wrap;rounded=0;" parent="-TgTT-V-02__XtDvlx8i-7" vertex="1">
          <mxGeometry x="1116" y="502" width="70" height="30" as="geometry" />
        </mxCell>
        <mxCell id="FXMqaDl6zVYJmUiDCpna-71" value="coaches" style="text;html=1;align=center;verticalAlign=middle;whiteSpace=wrap;rounded=0;" parent="-TgTT-V-02__XtDvlx8i-7" vertex="1">
          <mxGeometry x="1420" y="994" width="64" height="30" as="geometry" />
        </mxCell>
        <mxCell id="FXMqaDl6zVYJmUiDCpna-72" value="coaches" style="text;html=1;align=center;verticalAlign=middle;whiteSpace=wrap;rounded=0;" parent="-TgTT-V-02__XtDvlx8i-7" vertex="1">
          <mxGeometry x="1700" y="1064" width="64" height="30" as="geometry" />
        </mxCell>
        <mxCell id="FXMqaDl6zVYJmUiDCpna-73" value="{Mandatory , AND}" style="text;html=1;align=center;verticalAlign=middle;whiteSpace=wrap;rounded=0;" parent="-TgTT-V-02__XtDvlx8i-7" vertex="1">
          <mxGeometry x="620" y="630" width="110" height="30" as="geometry" />
        </mxCell>
        <mxCell id="FXMqaDl6zVYJmUiDCpna-74" value="{Mandatory , OR}" style="text;html=1;align=center;verticalAlign=middle;whiteSpace=wrap;rounded=0;" parent="-TgTT-V-02__XtDvlx8i-7" vertex="1">
          <mxGeometry x="1324" y="634" width="110" height="30" as="geometry" />
        </mxCell>
        <mxCell id="FXMqaDl6zVYJmUiDCpna-75" value="{Mandatory , OR}" style="text;html=1;align=center;verticalAlign=middle;whiteSpace=wrap;rounded=0;" parent="-TgTT-V-02__XtDvlx8i-7" vertex="1">
          <mxGeometry x="1579" y="725" width="110" height="30" as="geometry" />
        </mxCell>
        <mxCell id="FXMqaDl6zVYJmUiDCpna-76" value="{Mandatory , OR}" style="text;html=1;align=center;verticalAlign=middle;whiteSpace=wrap;rounded=0;" parent="-TgTT-V-02__XtDvlx8i-7" vertex="1">
          <mxGeometry x="1178" y="725" width="110" height="30" as="geometry" />
        </mxCell>
        <mxCell id="FXMqaDl6zVYJmUiDCpna-77" value="" style="triangle;whiteSpace=wrap;html=1;rotation=90;fillColor=#000000;" parent="-TgTT-V-02__XtDvlx8i-7" vertex="1">
          <mxGeometry x="673" y="438" width="25" height="9" as="geometry" />
        </mxCell>
        <mxCell id="FXMqaDl6zVYJmUiDCpna-78" value="" style="triangle;whiteSpace=wrap;html=1;rotation=90;fillColor=#000000;" parent="-TgTT-V-02__XtDvlx8i-7" vertex="1">
          <mxGeometry x="1113" y="539" width="25" height="9" as="geometry" />
        </mxCell>
        <mxCell id="FXMqaDl6zVYJmUiDCpna-79" value="" style="triangle;whiteSpace=wrap;html=1;rotation=-90;fillColor=#000000;" parent="-TgTT-V-02__XtDvlx8i-7" vertex="1">
          <mxGeometry x="1439.5" y="976" width="25" height="9" as="geometry" />
        </mxCell>
        <mxCell id="FXMqaDl6zVYJmUiDCpna-80" value="" style="triangle;whiteSpace=wrap;html=1;rotation=0;fillColor=#000000;" parent="-TgTT-V-02__XtDvlx8i-7" vertex="1">
          <mxGeometry x="1760" y="1074" width="25" height="9" as="geometry" />
        </mxCell>
        <mxCell id="FXMqaDl6zVYJmUiDCpna-81" value="" style="triangle;whiteSpace=wrap;html=1;rotation=-180;fillColor=#000000;" parent="-TgTT-V-02__XtDvlx8i-7" vertex="1">
          <mxGeometry x="386" y="345" width="25" height="9" as="geometry" />
        </mxCell>
        <mxCell id="FXMqaDl6zVYJmUiDCpna-82" value="&lt;b&gt;&lt;font style=&quot;font-size: 18px;&quot;&gt;1..*&lt;/font&gt;&lt;/b&gt;" style="text;strokeColor=none;fillColor=none;align=left;verticalAlign=middle;spacingLeft=4;spacingRight=4;overflow=hidden;points=[[0,0.5],[1,0.5]];portConstraint=eastwest;rotatable=0;whiteSpace=wrap;html=1;" parent="-TgTT-V-02__XtDvlx8i-7" vertex="1">
          <mxGeometry x="510" y="304" width="50" height="30" as="geometry" />
        </mxCell>
        <mxCell id="FXMqaDl6zVYJmUiDCpna-83" value="&lt;b&gt;&lt;font style=&quot;font-size: 18px;&quot;&gt;0..*&lt;/font&gt;&lt;/b&gt;" style="text;strokeColor=none;fillColor=none;align=left;verticalAlign=middle;spacingLeft=4;spacingRight=4;overflow=hidden;points=[[0,0.5],[1,0.5]];portConstraint=eastwest;rotatable=0;whiteSpace=wrap;html=1;" parent="-TgTT-V-02__XtDvlx8i-7" vertex="1">
          <mxGeometry x="330" y="304" width="50" height="30" as="geometry" />
        </mxCell>
        <mxCell id="FXMqaDl6zVYJmUiDCpna-84" value="&lt;b&gt;&lt;font style=&quot;font-size: 18px;&quot;&gt;1..*&lt;/font&gt;&lt;/b&gt;" style="text;strokeColor=none;fillColor=none;align=left;verticalAlign=middle;spacingLeft=4;spacingRight=4;overflow=hidden;points=[[0,0.5],[1,0.5]];portConstraint=eastwest;rotatable=0;whiteSpace=wrap;html=1;" parent="-TgTT-V-02__XtDvlx8i-7" vertex="1">
          <mxGeometry x="630" y="384" width="50" height="30" as="geometry" />
        </mxCell>
        <mxCell id="FXMqaDl6zVYJmUiDCpna-85" value="&lt;b&gt;&lt;font style=&quot;font-size: 18px;&quot;&gt;0..*&lt;/font&gt;&lt;/b&gt;" style="text;strokeColor=none;fillColor=none;align=left;verticalAlign=middle;spacingLeft=4;spacingRight=4;overflow=hidden;points=[[0,0.5],[1,0.5]];portConstraint=eastwest;rotatable=0;whiteSpace=wrap;html=1;" parent="-TgTT-V-02__XtDvlx8i-7" vertex="1">
          <mxGeometry x="633" y="444" width="50" height="30" as="geometry" />
        </mxCell>
        <mxCell id="FXMqaDl6zVYJmUiDCpna-86" value="&lt;b&gt;&lt;font style=&quot;font-size: 18px;&quot;&gt;1..*&lt;/font&gt;&lt;/b&gt;" style="text;strokeColor=none;fillColor=none;align=left;verticalAlign=middle;spacingLeft=4;spacingRight=4;overflow=hidden;points=[[0,0.5],[1,0.5]];portConstraint=eastwest;rotatable=0;whiteSpace=wrap;html=1;" parent="-TgTT-V-02__XtDvlx8i-7" vertex="1">
          <mxGeometry x="785" y="491" width="50" height="30" as="geometry" />
        </mxCell>
        <mxCell id="FXMqaDl6zVYJmUiDCpna-87" value="&lt;b&gt;&lt;font style=&quot;font-size: 18px;&quot;&gt;1..*&lt;/font&gt;&lt;/b&gt;" style="text;strokeColor=none;fillColor=none;align=left;verticalAlign=middle;spacingLeft=4;spacingRight=4;overflow=hidden;points=[[0,0.5],[1,0.5]];portConstraint=eastwest;rotatable=0;whiteSpace=wrap;html=1;" parent="-TgTT-V-02__XtDvlx8i-7" vertex="1">
          <mxGeometry x="782" y="284" width="50" height="30" as="geometry" />
        </mxCell>
        <mxCell id="FXMqaDl6zVYJmUiDCpna-88" value="&lt;b&gt;&lt;font style=&quot;font-size: 18px;&quot;&gt;1..*&lt;/font&gt;&lt;/b&gt;" style="text;strokeColor=none;fillColor=none;align=left;verticalAlign=middle;spacingLeft=4;spacingRight=4;overflow=hidden;points=[[0,0.5],[1,0.5]];portConstraint=eastwest;rotatable=0;whiteSpace=wrap;html=1;" parent="-TgTT-V-02__XtDvlx8i-7" vertex="1">
          <mxGeometry x="870" y="154" width="50" height="30" as="geometry" />
        </mxCell>
        <mxCell id="FXMqaDl6zVYJmUiDCpna-89" value="&lt;b&gt;&lt;font style=&quot;font-size: 18px;&quot;&gt;0..*&lt;/font&gt;&lt;/b&gt;" style="text;strokeColor=none;fillColor=none;align=left;verticalAlign=middle;spacingLeft=4;spacingRight=4;overflow=hidden;points=[[0,0.5],[1,0.5]];portConstraint=eastwest;rotatable=0;whiteSpace=wrap;html=1;" parent="-TgTT-V-02__XtDvlx8i-7" vertex="1">
          <mxGeometry x="1144" y="353.5" width="50" height="30" as="geometry" />
        </mxCell>
        <mxCell id="FXMqaDl6zVYJmUiDCpna-90" value="&lt;b&gt;&lt;font style=&quot;font-size: 18px;&quot;&gt;1..1&lt;/font&gt;&lt;/b&gt;" style="text;strokeColor=none;fillColor=none;align=left;verticalAlign=middle;spacingLeft=4;spacingRight=4;overflow=hidden;points=[[0,0.5],[1,0.5]];portConstraint=eastwest;rotatable=0;whiteSpace=wrap;html=1;" parent="-TgTT-V-02__XtDvlx8i-7" vertex="1">
          <mxGeometry x="1040" y="294" width="50" height="30" as="geometry" />
        </mxCell>
        <mxCell id="FXMqaDl6zVYJmUiDCpna-91" value="&lt;b&gt;&lt;font style=&quot;font-size: 18px;&quot;&gt;0..*&lt;/font&gt;&lt;/b&gt;" style="text;strokeColor=none;fillColor=none;align=left;verticalAlign=middle;spacingLeft=4;spacingRight=4;overflow=hidden;points=[[0,0.5],[1,0.5]];portConstraint=eastwest;rotatable=0;whiteSpace=wrap;html=1;" parent="-TgTT-V-02__XtDvlx8i-7" vertex="1">
          <mxGeometry x="1112" y="624" width="50" height="30" as="geometry" />
        </mxCell>
        <mxCell id="FXMqaDl6zVYJmUiDCpna-92" value="&lt;b&gt;&lt;font style=&quot;font-size: 18px;&quot;&gt;2..4&lt;/font&gt;&lt;/b&gt;" style="text;strokeColor=none;fillColor=none;align=left;verticalAlign=middle;spacingLeft=4;spacingRight=4;overflow=hidden;points=[[0,0.5],[1,0.5]];portConstraint=eastwest;rotatable=0;whiteSpace=wrap;html=1;" parent="-TgTT-V-02__XtDvlx8i-7" vertex="1">
          <mxGeometry x="1113" y="444" width="50" height="30" as="geometry" />
        </mxCell>
        <mxCell id="FXMqaDl6zVYJmUiDCpna-93" value="&lt;b&gt;&lt;font style=&quot;font-size: 18px;&quot;&gt;1..*&lt;/font&gt;&lt;/b&gt;" style="text;strokeColor=none;fillColor=none;align=left;verticalAlign=middle;spacingLeft=4;spacingRight=4;overflow=hidden;points=[[0,0.5],[1,0.5]];portConstraint=eastwest;rotatable=0;whiteSpace=wrap;html=1;" parent="-TgTT-V-02__XtDvlx8i-7" vertex="1">
          <mxGeometry x="1030" y="444" width="50" height="30" as="geometry" />
        </mxCell>
        <mxCell id="FXMqaDl6zVYJmUiDCpna-94" value="&lt;b&gt;&lt;font style=&quot;font-size: 18px;&quot;&gt;1..1&lt;/font&gt;&lt;/b&gt;" style="text;strokeColor=none;fillColor=none;align=left;verticalAlign=middle;spacingLeft=4;spacingRight=4;overflow=hidden;points=[[0,0.5],[1,0.5]];portConstraint=eastwest;rotatable=0;whiteSpace=wrap;html=1;" parent="-TgTT-V-02__XtDvlx8i-7" vertex="1">
          <mxGeometry x="785" y="554" width="50" height="30" as="geometry" />
        </mxCell>
        <mxCell id="FXMqaDl6zVYJmUiDCpna-95" value="&lt;b&gt;&lt;font style=&quot;font-size: 18px;&quot;&gt;0..*&lt;/font&gt;&lt;/b&gt;" style="text;strokeColor=none;fillColor=none;align=left;verticalAlign=middle;spacingLeft=4;spacingRight=4;overflow=hidden;points=[[0,0.5],[1,0.5]];portConstraint=eastwest;rotatable=0;whiteSpace=wrap;html=1;" parent="-TgTT-V-02__XtDvlx8i-7" vertex="1">
          <mxGeometry x="1640" y="626" width="50" height="30" as="geometry" />
        </mxCell>
        <mxCell id="FXMqaDl6zVYJmUiDCpna-96" value="&lt;b&gt;&lt;font style=&quot;font-size: 18px;&quot;&gt;0..*&lt;/font&gt;&lt;/b&gt;" style="text;strokeColor=none;fillColor=none;align=left;verticalAlign=middle;spacingLeft=4;spacingRight=4;overflow=hidden;points=[[0,0.5],[1,0.5]];portConstraint=eastwest;rotatable=0;whiteSpace=wrap;html=1;" parent="-TgTT-V-02__XtDvlx8i-7" vertex="1">
          <mxGeometry x="1439.5" y="835" width="50" height="30" as="geometry" />
        </mxCell>
        <mxCell id="FXMqaDl6zVYJmUiDCpna-97" value="&lt;b&gt;&lt;font style=&quot;font-size: 18px;&quot;&gt;1..1&lt;/font&gt;&lt;/b&gt;" style="text;strokeColor=none;fillColor=none;align=left;verticalAlign=middle;spacingLeft=4;spacingRight=4;overflow=hidden;points=[[0,0.5],[1,0.5]];portConstraint=eastwest;rotatable=0;whiteSpace=wrap;html=1;" parent="-TgTT-V-02__XtDvlx8i-7" vertex="1">
          <mxGeometry x="1352" y="994" width="50" height="30" as="geometry" />
        </mxCell>
        <mxCell id="FXMqaDl6zVYJmUiDCpna-98" value="&lt;b&gt;&lt;font style=&quot;font-size: 18px;&quot;&gt;0..*&lt;/font&gt;&lt;/b&gt;" style="text;strokeColor=none;fillColor=none;align=left;verticalAlign=middle;spacingLeft=4;spacingRight=4;overflow=hidden;points=[[0,0.5],[1,0.5]];portConstraint=eastwest;rotatable=0;whiteSpace=wrap;html=1;" parent="-TgTT-V-02__XtDvlx8i-7" vertex="1">
          <mxGeometry x="1895" y="784" width="50" height="30" as="geometry" />
        </mxCell>
        <mxCell id="FXMqaDl6zVYJmUiDCpna-99" value="&lt;b&gt;&lt;font style=&quot;font-size: 18px;&quot;&gt;1..2&lt;/font&gt;&lt;/b&gt;" style="text;strokeColor=none;fillColor=none;align=left;verticalAlign=middle;spacingLeft=4;spacingRight=4;overflow=hidden;points=[[0,0.5],[1,0.5]];portConstraint=eastwest;rotatable=0;whiteSpace=wrap;html=1;" parent="-TgTT-V-02__XtDvlx8i-7" vertex="1">
          <mxGeometry x="1352" y="1034" width="50" height="30" as="geometry" />
        </mxCell>
        <mxCell id="FXMqaDl6zVYJmUiDCpna-100" value="" style="triangle;whiteSpace=wrap;html=1;rotation=0;fillColor=#000000;" parent="-TgTT-V-02__XtDvlx8i-7" vertex="1">
          <mxGeometry x="1186" y="275.5" width="25" height="9" as="geometry" />
        </mxCell>
        <mxCell id="FXMqaDl6zVYJmUiDCpna-101" value="" style="endArrow=classic;html=1;rounded=0;strokeColor=default;align=center;verticalAlign=middle;fontFamily=Helvetica;fontSize=11;fontColor=default;labelBackgroundColor=default;curved=1;entryX=0.503;entryY=1.025;entryDx=0;entryDy=0;entryPerimeter=0;" parent="-TgTT-V-02__XtDvlx8i-7" edge="1">
          <mxGeometry width="50" height="50" relative="1" as="geometry">
            <mxPoint x="1180.2800000000002" y="754.25" as="sourcePoint" />
            <mxPoint x="1180" y="714" as="targetPoint" />
          </mxGeometry>
        </mxCell>
        <mxCell id="FXMqaDl6zVYJmUiDCpna-102" value="" style="endArrow=classic;html=1;rounded=0;strokeColor=default;align=center;verticalAlign=middle;fontFamily=Helvetica;fontSize=11;fontColor=default;labelBackgroundColor=default;curved=1;entryX=0.503;entryY=1.025;entryDx=0;entryDy=0;entryPerimeter=0;" parent="-TgTT-V-02__XtDvlx8i-7" edge="1">
          <mxGeometry width="50" height="50" relative="1" as="geometry">
            <mxPoint x="1580.2800000000002" y="754.25" as="sourcePoint" />
            <mxPoint x="1580" y="714" as="targetPoint" />
          </mxGeometry>
        </mxCell>
        <mxCell id="FXMqaDl6zVYJmUiDCpna-103" value="&lt;span style=&quot;text-align: left; white-space: pre;&quot;&gt;&#x9;&lt;/span&gt;&lt;span style=&quot;text-align: left;&quot;&gt;W2053187_Fitness_Play&lt;/span&gt;" style="swimlane;fontStyle=0;childLayout=stackLayout;horizontal=1;startSize=30;horizontalStack=0;resizeParent=1;resizeParentMax=0;resizeLast=0;collapsible=1;marginBottom=0;whiteSpace=wrap;html=1;" parent="-TgTT-V-02__XtDvlx8i-7" vertex="1">
          <mxGeometry x="1523" y="904" width="176" height="60" as="geometry" />
        </mxCell>
        <mxCell id="8P291sAO1VQeETlHJY7K-5" value="&lt;span style=&quot;text-align: left; white-space: pre;&quot;&gt;&#x9;&lt;/span&gt;&lt;span style=&quot;text-align: left;&quot;&gt;W2053187_Fitness_Play_id&lt;/span&gt;" style="text;html=1;align=center;verticalAlign=middle;whiteSpace=wrap;rounded=0;" parent="FXMqaDl6zVYJmUiDCpna-103" vertex="1">
          <mxGeometry y="30" width="176" height="30" as="geometry" />
        </mxCell>
        <mxCell id="FXMqaDl6zVYJmUiDCpna-104" value="&lt;span style=&quot;text-align: left; white-space: pre;&quot;&gt;&#x9;&lt;/span&gt;&lt;span style=&quot;text-align: left;&quot;&gt;W2053187_Group_Coaching&lt;/span&gt;" style="swimlane;fontStyle=0;childLayout=stackLayout;horizontal=1;startSize=30;horizontalStack=0;resizeParent=1;resizeParentMax=0;resizeLast=0;collapsible=1;marginBottom=0;whiteSpace=wrap;html=1;" parent="-TgTT-V-02__XtDvlx8i-7" vertex="1">
          <mxGeometry x="1713" y="904" width="195" height="60" as="geometry" />
        </mxCell>
        <mxCell id="8P291sAO1VQeETlHJY7K-6" value="&lt;span style=&quot;text-align: left; white-space: pre;&quot;&gt;&#x9;&lt;/span&gt;&lt;span style=&quot;text-align: left;&quot;&gt;W2053187_Group_Coaching_id&lt;/span&gt;" style="text;html=1;align=center;verticalAlign=middle;whiteSpace=wrap;rounded=0;" parent="FXMqaDl6zVYJmUiDCpna-104" vertex="1">
          <mxGeometry y="30" width="195" height="30" as="geometry" />
        </mxCell>
        <mxCell id="FXMqaDl6zVYJmUiDCpna-105" value="&lt;span style=&quot;text-align: left; white-space: pre;&quot;&gt;&#x9;&lt;/span&gt;&lt;span style=&quot;text-align: left;&quot;&gt;W2053187_Social_Fun&lt;/span&gt;" style="swimlane;fontStyle=0;childLayout=stackLayout;horizontal=1;startSize=30;horizontalStack=0;resizeParent=1;resizeParentMax=0;resizeLast=0;collapsible=1;marginBottom=0;whiteSpace=wrap;html=1;" parent="-TgTT-V-02__XtDvlx8i-7" vertex="1">
          <mxGeometry x="1928" y="904" width="176" height="60" as="geometry" />
        </mxCell>
        <mxCell id="8P291sAO1VQeETlHJY7K-7" value="&lt;span style=&quot;text-align: left; white-space: pre;&quot;&gt;&#x9;&lt;/span&gt;&lt;span style=&quot;text-align: left;&quot;&gt;W2053187_Social_Fun_id&lt;/span&gt;" style="text;html=1;align=center;verticalAlign=middle;whiteSpace=wrap;rounded=0;" parent="FXMqaDl6zVYJmUiDCpna-105" vertex="1">
          <mxGeometry y="30" width="176" height="30" as="geometry" />
        </mxCell>
        <mxCell id="FXMqaDl6zVYJmUiDCpna-106" value="" style="endArrow=none;html=1;rounded=0;entryX=0.454;entryY=-0.006;entryDx=0;entryDy=0;entryPerimeter=0;" parent="-TgTT-V-02__XtDvlx8i-7" target="FXMqaDl6zVYJmUiDCpna-105" edge="1">
          <mxGeometry width="50" height="50" relative="1" as="geometry">
            <mxPoint x="1611" y="904" as="sourcePoint" />
            <mxPoint x="1983" y="875" as="targetPoint" />
            <Array as="points">
              <mxPoint x="1611" y="874" />
              <mxPoint x="2008" y="875" />
            </Array>
          </mxGeometry>
        </mxCell>
        <mxCell id="FXMqaDl6zVYJmUiDCpna-107" value="" style="endArrow=none;html=1;rounded=0;exitX=0.461;exitY=0.006;exitDx=0;exitDy=0;exitPerimeter=0;" parent="-TgTT-V-02__XtDvlx8i-7" source="FXMqaDl6zVYJmUiDCpna-104" edge="1">
          <mxGeometry width="50" height="50" relative="1" as="geometry">
            <mxPoint x="1803" y="895" as="sourcePoint" />
            <mxPoint x="1803" y="875" as="targetPoint" />
          </mxGeometry>
        </mxCell>
        <mxCell id="FXMqaDl6zVYJmUiDCpna-108" value="W2053187_Doubles_Session" style="swimlane;fontStyle=0;childLayout=stackLayout;horizontal=1;startSize=30;horizontalStack=0;resizeParent=1;resizeParentMax=0;resizeLast=0;collapsible=1;marginBottom=0;whiteSpace=wrap;html=1;" parent="-TgTT-V-02__XtDvlx8i-7" vertex="1">
          <mxGeometry x="1190" y="778" width="173" height="60" as="geometry" />
        </mxCell>
        <mxCell id="8P291sAO1VQeETlHJY7K-3" value="W2053187_Doubles_Session_id" style="text;html=1;align=center;verticalAlign=middle;whiteSpace=wrap;rounded=0;" parent="FXMqaDl6zVYJmUiDCpna-108" vertex="1">
          <mxGeometry y="30" width="173" height="30" as="geometry" />
        </mxCell>
        <mxCell id="FXMqaDl6zVYJmUiDCpna-109" value="W2053187_equipment" style="swimlane;fontStyle=0;childLayout=stackLayout;horizontal=1;startSize=30;horizontalStack=0;resizeParent=1;resizeParentMax=0;resizeLast=0;collapsible=1;marginBottom=0;whiteSpace=wrap;html=1;" parent="-TgTT-V-02__XtDvlx8i-7" vertex="1">
          <mxGeometry x="100" y="444" width="230" height="150" as="geometry" />
        </mxCell>
        <mxCell id="FXMqaDl6zVYJmUiDCpna-110" value="W2053187_equipment_ID (PK)" style="text;strokeColor=none;fillColor=none;align=left;verticalAlign=middle;spacingLeft=4;spacingRight=4;overflow=hidden;points=[[0,0.5],[1,0.5]];portConstraint=eastwest;rotatable=0;whiteSpace=wrap;html=1;" parent="FXMqaDl6zVYJmUiDCpna-109" vertex="1">
          <mxGeometry y="30" width="230" height="30" as="geometry" />
        </mxCell>
        <mxCell id="FXMqaDl6zVYJmUiDCpna-111" value="W2053187_equipment_type" style="text;strokeColor=none;fillColor=none;align=left;verticalAlign=middle;spacingLeft=4;spacingRight=4;overflow=hidden;points=[[0,0.5],[1,0.5]];portConstraint=eastwest;rotatable=0;whiteSpace=wrap;html=1;" parent="FXMqaDl6zVYJmUiDCpna-109" vertex="1">
          <mxGeometry y="60" width="230" height="30" as="geometry" />
        </mxCell>
        <mxCell id="FXMqaDl6zVYJmUiDCpna-112" value="W2053187_equipment_Status" style="text;strokeColor=none;fillColor=none;align=left;verticalAlign=middle;spacingLeft=4;spacingRight=4;overflow=hidden;points=[[0,0.5],[1,0.5]];portConstraint=eastwest;rotatable=0;whiteSpace=wrap;html=1;" parent="FXMqaDl6zVYJmUiDCpna-109" vertex="1">
          <mxGeometry y="90" width="230" height="30" as="geometry" />
        </mxCell>
        <mxCell id="FXMqaDl6zVYJmUiDCpna-113" value="W2053187_purchase_Date" style="text;strokeColor=none;fillColor=none;align=left;verticalAlign=middle;spacingLeft=4;spacingRight=4;overflow=hidden;points=[[0,0.5],[1,0.5]];portConstraint=eastwest;rotatable=0;whiteSpace=wrap;html=1;" parent="FXMqaDl6zVYJmUiDCpna-109" vertex="1">
          <mxGeometry y="120" width="230" height="30" as="geometry" />
        </mxCell>
        <mxCell id="FXMqaDl6zVYJmUiDCpna-114" value="" style="endArrow=none;html=1;rounded=0;" parent="-TgTT-V-02__XtDvlx8i-7" edge="1">
          <mxGeometry width="50" height="50" relative="1" as="geometry">
            <mxPoint x="330" y="544" as="sourcePoint" />
            <mxPoint x="555" y="544" as="targetPoint" />
            <Array as="points">
              <mxPoint x="373" y="544" />
            </Array>
          </mxGeometry>
        </mxCell>
        <mxCell id="FXMqaDl6zVYJmUiDCpna-115" value="assigned to" style="text;html=1;align=center;verticalAlign=middle;whiteSpace=wrap;rounded=0;" parent="-TgTT-V-02__XtDvlx8i-7" vertex="1">
          <mxGeometry x="394" y="513" width="70" height="30" as="geometry" />
        </mxCell>
        <mxCell id="FXMqaDl6zVYJmUiDCpna-116" value="" style="triangle;whiteSpace=wrap;html=1;rotation=0;fillColor=#000000;" parent="-TgTT-V-02__XtDvlx8i-7" vertex="1">
          <mxGeometry x="465" y="524" width="25" height="9" as="geometry" />
        </mxCell>
        <mxCell id="FXMqaDl6zVYJmUiDCpna-117" value="&lt;b&gt;&lt;font style=&quot;font-size: 18px;&quot;&gt;1..1&lt;/font&gt;&lt;/b&gt;" style="text;strokeColor=none;fillColor=none;align=left;verticalAlign=middle;spacingLeft=4;spacingRight=4;overflow=hidden;points=[[0,0.5],[1,0.5]];portConstraint=eastwest;rotatable=0;whiteSpace=wrap;html=1;" parent="-TgTT-V-02__XtDvlx8i-7" vertex="1">
          <mxGeometry x="510" y="514" width="50" height="30" as="geometry" />
        </mxCell>
        <mxCell id="FXMqaDl6zVYJmUiDCpna-118" value="&lt;b&gt;&lt;font style=&quot;font-size: 18px;&quot;&gt;1..*&lt;/font&gt;&lt;/b&gt;" style="text;strokeColor=none;fillColor=none;align=left;verticalAlign=middle;spacingLeft=4;spacingRight=4;overflow=hidden;points=[[0,0.5],[1,0.5]];portConstraint=eastwest;rotatable=0;whiteSpace=wrap;html=1;" parent="-TgTT-V-02__XtDvlx8i-7" vertex="1">
          <mxGeometry x="330" y="514" width="50" height="30" as="geometry" />
        </mxCell>
        <mxCell id="FXMqaDl6zVYJmUiDCpna-125" value="Includes" style="text;html=1;align=center;verticalAlign=middle;whiteSpace=wrap;rounded=0;" parent="-TgTT-V-02__XtDvlx8i-7" vertex="1">
          <mxGeometry x="386" y="414" width="70" height="30" as="geometry" />
        </mxCell>
        <mxCell id="FXMqaDl6zVYJmUiDCpna-126" value="" style="triangle;whiteSpace=wrap;html=1;rotation=0;fillColor=#000000;" parent="-TgTT-V-02__XtDvlx8i-7" vertex="1">
          <mxGeometry x="451" y="424.5" width="25" height="9" as="geometry" />
        </mxCell>
        <mxCell id="FXMqaDl6zVYJmUiDCpna-127" value="&lt;b&gt;&lt;font style=&quot;font-size: 18px;&quot;&gt;1..*&lt;/font&gt;&lt;/b&gt;" style="text;strokeColor=none;fillColor=none;align=left;verticalAlign=middle;spacingLeft=4;spacingRight=4;overflow=hidden;points=[[0,0.5],[1,0.5]];portConstraint=eastwest;rotatable=0;whiteSpace=wrap;html=1;" parent="-TgTT-V-02__XtDvlx8i-7" vertex="1">
          <mxGeometry x="555" y="444" width="50" height="30" as="geometry" />
        </mxCell>
        <mxCell id="FXMqaDl6zVYJmUiDCpna-128" value="&lt;b&gt;&lt;font style=&quot;font-size: 18px;&quot;&gt;1..1&lt;/font&gt;&lt;/b&gt;" style="text;strokeColor=none;fillColor=none;align=left;verticalAlign=middle;spacingLeft=4;spacingRight=4;overflow=hidden;points=[[0,0.5],[1,0.5]];portConstraint=eastwest;rotatable=0;whiteSpace=wrap;html=1;" parent="-TgTT-V-02__XtDvlx8i-7" vertex="1">
          <mxGeometry x="235" y="384" width="50" height="30" as="geometry" />
        </mxCell>
        <mxCell id="8P291sAO1VQeETlHJY7K-1" value="&lt;h1 style=&quot;margin-top: 0px;&quot;&gt;&lt;font style=&quot;font-size: 36px;&quot;&gt;Assumptions&lt;/font&gt;&lt;/h1&gt;&lt;p&gt;&lt;/p&gt;&lt;ul&gt;&lt;li style=&quot;text-align: justify;&quot;&gt;&lt;span style=&quot;font-size: 24px;&quot;&gt;- Each park and court in the Racketminster scheme has special caretakers responsible for maintenance tasks.&lt;/span&gt;&lt;/li&gt;&lt;li style=&quot;text-align: justify;&quot;&gt;&lt;span style=&quot;font-size: 24px;&quot;&gt;- Caretakers are responsible for accurately maintaining logs related to maintenance tasks conducted in both parks and courts.&lt;/span&gt;&lt;/li&gt;&lt;li style=&quot;text-align: justify;&quot;&gt;&lt;span style=&quot;font-size: 24px;&quot;&gt;- Each court has assigned equipment (e.g., nets, rackets, balls), which is specific to each court to make sure quality and availability.&lt;/span&gt;&lt;/li&gt;&lt;li style=&quot;text-align: justify;&quot;&gt;&lt;span style=&quot;font-size: 24px;&quot;&gt;- Racketminster offers two booking options: Block Booking and&amp;nbsp; Booking (Supervised) . Players are not required to choose both and can select the booking type that best matches their needs.&lt;/span&gt;&lt;/li&gt;&lt;li style=&quot;text-align: justify;&quot;&gt;&lt;span style=&quot;font-size: 24px;&quot;&gt;- Unsupervised sessions are mainly designed for singles or doubles games, allowing players to play without direct supervision or instruction.&lt;/span&gt;&lt;/li&gt;&lt;li style=&quot;text-align: justify;&quot;&gt;&lt;span style=&quot;font-size: 24px;&quot;&gt;- Supervised group sessions are categorised into three types like fitness play, group coaching, and social fun, to cater to changing player needs and objectives.&lt;/span&gt;&lt;/li&gt;&lt;li style=&quot;text-align: justify;&quot;&gt;&lt;span style=&quot;font-size: 24px;&quot;&gt;- Supervised group sessions may include up to two instructors tocoach multiple players more effectively.&lt;/span&gt;&lt;/li&gt;&lt;li style=&quot;text-align: justify;&quot;&gt;&lt;span style=&quot;font-size: 24px;&quot;&gt;- Courts can be used for different racket sports (like tennis or pickleball) or only one type, depending on how each park is set up.&lt;/span&gt;&lt;/li&gt;&lt;li style=&quot;text-align: justify;&quot;&gt;&lt;span style=&quot;font-size: 24px;&quot;&gt;- Courts have detailed maintenance records to keep things clear, while parks are regularly maintained without needing separate records.&lt;/span&gt;&lt;/li&gt;&lt;/ul&gt;&lt;p&gt;&lt;/p&gt;" style="text;html=1;whiteSpace=wrap;overflow=hidden;rounded=0;" parent="-TgTT-V-02__XtDvlx8i-7" vertex="1">
          <mxGeometry x="389" y="1194" width="1280" height="540" as="geometry" />
        </mxCell>
        <mxCell id="FXMqaDl6zVYJmUiDCpna-123" value="{Mandatory , OR}" style="text;html=1;align=center;verticalAlign=middle;whiteSpace=wrap;rounded=0;" parent="-TgTT-V-02__XtDvlx8i-7" vertex="1">
          <mxGeometry x="1763" y="875" width="195" height="30" as="geometry" />
        </mxCell>
        <mxCell id="-TgTT-V-02__XtDvlx8i-1" value="" style="rounded=0;whiteSpace=wrap;html=1;fillColor=none;" vertex="1" parent="-TgTT-V-02__XtDvlx8i-7">
          <mxGeometry width="2240" height="1760" as="geometry" />
        </mxCell>
        <mxCell id="-TgTT-V-02__XtDvlx8i-2" value="" style="endArrow=none;html=1;rounded=0;exitX=-0.013;exitY=-0.017;exitDx=0;exitDy=0;entryX=0.063;entryY=0;entryDx=0;entryDy=0;entryPerimeter=0;exitPerimeter=0;jumpStyle=arc;" edge="1" parent="-TgTT-V-02__XtDvlx8i-7" source="FXMqaDl6zVYJmUiDCpna-94" target="FXMqaDl6zVYJmUiDCpna-1">
          <mxGeometry width="50" height="50" relative="1" as="geometry">
            <mxPoint x="905" y="554" as="sourcePoint" />
            <mxPoint x="955" y="549" as="targetPoint" />
            <Array as="points">
              <mxPoint x="915" y="554" />
              <mxPoint x="915" y="484" />
              <mxPoint x="1275" y="484" />
            </Array>
          </mxGeometry>
        </mxCell>
        <mxCell id="-TgTT-V-02__XtDvlx8i-3" value="holds" style="text;html=1;align=center;verticalAlign=middle;whiteSpace=wrap;rounded=0;" vertex="1" parent="-TgTT-V-02__XtDvlx8i-7">
          <mxGeometry x="926" y="479" width="70" height="30" as="geometry" />
        </mxCell>
        <mxCell id="-TgTT-V-02__XtDvlx8i-4" value="&lt;b&gt;&lt;font style=&quot;font-size: 18px;&quot;&gt;1..1&lt;/font&gt;&lt;/b&gt;" style="text;strokeColor=none;fillColor=none;align=left;verticalAlign=middle;spacingLeft=4;spacingRight=4;overflow=hidden;points=[[0,0.5],[1,0.5]];portConstraint=eastwest;rotatable=0;whiteSpace=wrap;html=1;" vertex="1" parent="-TgTT-V-02__XtDvlx8i-7">
          <mxGeometry x="785" y="528.5" width="50" height="30" as="geometry" />
        </mxCell>
        <mxCell id="-TgTT-V-02__XtDvlx8i-5" value="&lt;b&gt;&lt;font style=&quot;font-size: 18px;&quot;&gt;0..*&lt;/font&gt;&lt;/b&gt;" style="text;strokeColor=none;fillColor=none;align=left;verticalAlign=middle;spacingLeft=4;spacingRight=4;overflow=hidden;points=[[0,0.5],[1,0.5]];portConstraint=eastwest;rotatable=0;whiteSpace=wrap;html=1;" vertex="1" parent="-TgTT-V-02__XtDvlx8i-7">
          <mxGeometry x="1274" y="503" width="50" height="30" as="geometry" />
        </mxCell>
      </root>
    </mxGraphModel>
  </diagram>
</mxfile>
